<svg xmlns:xlink="http://www.w3.org/1999/xlink" xmlns="http://www.w3.org/2000/svg" width="190" height="38" viewBox="0 0 190 38" fill="none"><script xmlns=""/>
<path d="M73.2793 16.377V29.4952H86.3735V16.377H73.2793ZM81.4062 24.8823H78.2553V20.9899H81.4062V24.8823Z" fill="#F05234"/>
<path d="M15.55 14.5418H14.8356C14.8356 14.5418 15.1928 10.1931 10.0443 10.1324C4.89585 10.0718 5.38369 14.0654 5.89767 14.871C6.41164 15.6767 7.55285 16.2917 10.1053 17.4179C12.6578 18.5441 15.5761 19.7395 15.3235 23.0574C15.0709 26.3753 11.926 29.5026 6.67299 29.1474C1.41997 28.7922 0.130672 26.1327 0 23.5859H0.845013C0.845013 23.5859 0.29619 27.874 5.27915 28.0992C10.2708 28.3244 10.75 25.9941 10.75 25.1971C10.75 24.1056 10.2621 23.1354 6.63814 21.5241C3.01417 19.9128 0.966974 18.5614 1.19347 15.2089C1.41997 11.8563 4.92198 9.28346 9.71329 9.4134C14.5046 9.54335 15.4106 12.1855 15.5413 14.5332L15.55 14.5418Z" fill="#024383"/>
<path d="M22.4142 9.70752H16.8127L23.2244 28.7398H24.9754L30.7424 18.3097L34.1399 28.7398H35.9257L46.484 9.70752H45.7348L37.8597 23.7154L33.3297 9.70752H27.824L30.481 17.4001L26.9181 23.75L22.4142 9.70752Z" fill="#024383"/>
<path d="M50.2376 9.70752L39.8448 28.7398H45.185L55.0986 10.4179L64.9426 28.7398H65.6569L55.4907 9.70752H50.2376Z" fill="#024383"/>
<path d="M58.5059 29.0268C58.262 29.0268 58.0093 28.9488 57.8002 28.7756L54.2982 25.9428C54.0369 25.7349 53.8888 25.4144 53.8888 25.0852V21.3169C53.8888 20.7018 54.3853 20.208 55.0039 20.208C55.6224 20.208 56.1189 20.7018 56.1189 21.3169V24.5568L59.2028 27.0603C59.6819 27.4502 59.7516 28.1519 59.3596 28.6197C59.1418 28.8882 58.8195 29.0268 58.4885 29.0268H58.5059Z" fill="#F94F29"/>
<path d="M97.0318 7.72314H91.6426V29.4874H97.0318V7.72314Z" fill="#F05234"/>
<path d="M114.026 16.377H101.672V20.9811H108.637V23.292H101.672V35.2241H114.026V30.4003H106.975V27.9488H114.026V16.377Z" fill="#F3AB1D"/>
<path d="M117.004 7.72314V29.4874H122.437V21.4301H125.131V29.4874H130.848V7.72314H125.131V16.3779H122.437V7.72314H117.004Z" fill="#F3AB1D"/>
<path d="M152.155 7.72314V29.4874H157.587V21.4301H160.282V29.4874H165.998V7.72314H160.282V16.3779H157.587V7.72314H152.155Z" fill="#009C7D"/>
<path d="M142.203 25.4092L147.015 30.2242L150.33 26.5075L145.276 20.9808H149.753V16.3767H144.941V12.0361H142.203H139.474V16.3767H134.661V20.9808H139.138L134.085 26.5075L137.399 30.2242L142.203 25.4092Z" fill="#009C7D"/>
<path d="M179.755 0.5C176.277 0.5 173.454 3.38198 173.454 6.93174C173.454 10.4815 176.277 13.3635 179.755 13.3635C183.233 13.3635 186.057 10.4815 186.057 6.93174C186.057 3.38198 183.233 0.5 179.755 0.5ZM179.755 8.55725C178.877 8.55725 178.163 7.82796 178.163 6.93174C178.163 6.03551 178.877 5.30623 179.755 5.30623C180.634 5.30623 181.348 6.03551 181.348 6.93174C181.348 7.82796 180.634 8.55725 179.755 8.55725Z" fill="#3771B8"/>
<path d="M189.992 21.1308V16.0083H169.52V21.1308H177.061V25.2342H173.497V37.5001H186.1V24.8739H182.373V21.1308H190H189.992ZM181.004 33.019H178.507V29.4868H181.004V33.019Z" fill="#3771B8"/>
</svg>